# xmcd
#
# Track frame offsets:
#	150
#	18540
#	32768
#	50134
#	68336
#	83819
#	97826
#	116484
#	133968
#	153236
#	169853
#
# Disc length: 2469 seconds
#
# Revision: 0
# Processed by: cddbd v1.5.1PL0 Copyright (c) Steve Scherf et al.
# Submitted via: audiograbber 1.83.01
#
DISCID=8809a30b
DTITLE=Chesney, Kenny - Everywhere We Go - Chesney, Kenny - Everywhere We Go
DYEAR=1999
DGENRE=Country
TTITLE0=What I Need To Do
TTITLE1=How Forever Feels
TTITLE2=You Had Me From Hello
TTITLE3=Kiss Me, Kiss Me, Kiss Me
TTITLE4=Life Is Good
TTITLE5=Everywhere We Go
TTITLE6=She Thinks My Tractors Sexy
TTITLE7=California
TTITLE8=Baptism (Duet With Randy Travis)
TTITLE9=A Woman Knows
TTITLE10=I Might Get Over You
EXTD=
EXTT0=
EXTT1=
EXTT2=
EXTT3=
EXTT4=
EXTT5=
EXTT6=
EXTT7=
EXTT8=
EXTT9=
EXTT10=
PLAYORDER=
